<svg height="20" viewBox="0 0 512 512" width="20" xmlns="http://www.w3.org/2000/svg" fill="#ffffff"><path d="m457.003906 0h-402.007812c-30.324219 0-54.996094 24.671875-54.996094 54.996094v402.007812c0 30.324219 24.671875 54.996094 54.996094 54.996094h402.007812c30.324219 0 54.996094-24.671875 54.996094-54.996094v-402.007812c0-30.324219-24.671875-54.996094-54.996094-54.996094zm-402.007812 30h402.007812c13.78125 0 24.996094 11.214844 24.996094 24.996094v66.003906h-452v-66.003906c0-13.78125 11.214844-24.996094 24.996094-24.996094zm402.007812 452h-402.007812c-13.78125 0-24.996094-11.214844-24.996094-24.996094v-306.003906h452v306.003906c0 13.78125-11.214844 24.996094-24.996094 24.996094zm0 0"/><path d="m451 76c0 8.285156-6.714844 15-15 15s-15-6.714844-15-15 6.714844-15 15-15 15 6.714844 15 15zm0 0"/><path d="m391 76c0 8.285156-6.714844 15-15 15s-15-6.714844-15-15 6.714844-15 15-15 15 6.714844 15 15zm0 0"/><path d="m331 76c0 8.285156-6.714844 15-15 15s-15-6.714844-15-15 6.714844-15 15-15 15 6.714844 15 15zm0 0"/><path d="m256 211c-107.523438 0-195 87.476562-195 195 0 8.285156 6.714844 15 15 15h360c8.285156 0 15-6.714844 15-15 0-107.523438-87.476562-195-195-195zm25.980469 180 47.011719-81.421875c4.140624-7.175781 1.683593-16.347656-5.492188-20.492187-7.175781-4.144532-16.347656-1.683594-20.488281 5.492187l-55.671875 96.421875h-155.664063c7.601563-83.980469 78.394531-150 164.324219-150s156.726562 66.019531 164.324219 150zm0 0"/></svg>